<svg width="16" height="19" viewBox="0 0 16 19" fill="none" xmlns="http://www.w3.org/2000/svg">
<path d="M9.75572 0C7.79363 0 6.3432 0.921616 5.46346 1.9688V0.855058C5.46346 0.618242 5.28778 0.426199 5.07097 0.426199H0.392496C0.175681 0.426199 0 0.618242 0 0.855058V18.0032C0 18.2401 0.175681 18.4321 0.392496 18.4321H5.26706C5.48387 18.4321 5.65956 18.2401 5.65956 18.0032V9.51885C5.65956 6.65983 6.37029 5.54599 8.19429 5.54599C10.1808 5.54599 10.3387 7.33159 10.3387 9.66595V18.0033C10.3387 18.2402 10.5143 18.4322 10.7312 18.4322H15.6075C15.8243 18.4322 16 18.2402 16 18.0033V8.59723C16 4.34596 15.2581 0 9.75572 0Z" fill="white"/>
</svg>
