<svg width="674" height="80" viewBox="0 0 674 80" fill="none" xmlns="http://www.w3.org/2000/svg">
<path d="M3.6 74.37H1.59V77H0.87V69.84H3.6C4.98 69.84 5.85 70.74 5.85 72.09C5.85 73.39 4.97 74.37 3.6 74.37ZM3.5 70.49H1.59V73.72H3.46C4.5 73.72 5.1 73.06 5.1 72.08C5.1 71.09 4.49 70.49 3.5 70.49ZM9.39258 72.1V72.72H9.01258C8.12258 72.72 7.55258 73.32 7.55258 74.24V77H6.86258V72.16H7.51258L7.56258 72.91C7.75258 72.39 8.26258 72.05 8.94258 72.05C9.09258 72.05 9.22258 72.06 9.39258 72.1ZM12.1543 77.12C10.7343 77.12 9.7843 76.1 9.7843 74.58C9.7843 73.07 10.7243 72.03 12.1043 72.03C13.4143 72.03 14.3043 72.96 14.3043 74.33V74.67H10.4543C10.5043 75.85 11.1243 76.53 12.1643 76.53C12.9543 76.53 13.4643 76.19 13.6443 75.55H14.3043C14.0443 76.57 13.2943 77.12 12.1543 77.12ZM12.1043 72.62C11.1943 72.62 10.5943 73.22 10.4743 74.17H13.6143C13.6143 73.24 13.0143 72.62 12.1043 72.62ZM16.0975 77H15.4075V72.16H16.0075L16.0875 72.85C16.3275 72.34 16.8675 72.03 17.5475 72.03C18.3075 72.03 18.8775 72.43 19.1075 73.06C19.3275 72.43 19.9175 72.03 20.6975 72.03C21.7475 72.03 22.4375 72.71 22.4375 73.83V77H21.7675V73.97C21.7675 73.14 21.3075 72.65 20.5675 72.65C19.7575 72.65 19.2775 73.26 19.2775 74.01V77H18.5975V73.96C18.5975 73.14 18.1275 72.66 17.3975 72.66C16.5875 72.66 16.0975 73.26 16.0975 74V77ZM24.1655 70.83C23.8855 70.83 23.6555 70.6 23.6555 70.32C23.6555 70.04 23.8855 69.8 24.1655 69.8C24.4455 69.8 24.6855 70.04 24.6855 70.32C24.6855 70.6 24.4455 70.83 24.1655 70.83ZM23.8255 77V72.16H24.5155V77H23.8255ZM29.0516 72.16H29.7416V77H29.1416L29.0516 76.18C28.7816 76.74 28.1116 77.12 27.3516 77.12C26.2116 77.12 25.5916 76.34 25.5916 75.16V72.15H26.2916V74.94C26.2916 76.09 26.8016 76.5 27.5716 76.5C28.5016 76.5 29.0516 75.88 29.0516 74.73V72.16ZM31.869 77H31.179V72.16H31.779L31.859 72.85C32.099 72.34 32.639 72.03 33.319 72.03C34.079 72.03 34.649 72.43 34.879 73.06C35.099 72.43 35.689 72.03 36.469 72.03C37.519 72.03 38.209 72.71 38.209 73.83V77H37.539V73.97C37.539 73.14 37.079 72.65 36.339 72.65C35.529 72.65 35.049 73.26 35.049 74.01V77H34.369V73.96C34.369 73.14 33.899 72.66 33.169 72.66C32.359 72.66 31.869 73.26 31.869 74V77ZM45.2504 74.37H43.2404V77H42.5204V69.84H45.2504C46.6304 69.84 47.5004 70.74 47.5004 72.09C47.5004 73.39 46.6204 74.37 45.2504 74.37ZM45.1504 70.49H43.2404V73.72H45.1104C46.1504 73.72 46.7504 73.06 46.7504 72.08C46.7504 71.09 46.1404 70.49 45.1504 70.49ZM51.043 72.1V72.72H50.663C49.773 72.72 49.203 73.32 49.203 74.24V77H48.513V72.16H49.163L49.213 72.91C49.403 72.39 49.913 72.05 50.593 72.05C50.743 72.05 50.873 72.06 51.043 72.1ZM51.4347 74.58C51.4347 73.1 52.4747 72.03 53.8947 72.03C55.3147 72.03 56.3547 73.1 56.3547 74.58C56.3547 76.05 55.3147 77.12 53.8947 77.12C52.4747 77.12 51.4347 76.05 51.4347 74.58ZM52.1347 74.57C52.1347 75.71 52.8547 76.5 53.8947 76.5C54.9247 76.5 55.6547 75.71 55.6547 74.57C55.6547 73.45 54.9247 72.65 53.8947 72.65C52.8547 72.65 52.1347 73.45 52.1347 74.57ZM57.4583 79.11V72.16H58.0583L58.1283 73.14C58.4683 72.39 59.1483 72.03 59.9583 72.03C61.3583 72.03 62.1983 73.1 62.1983 74.56C62.1983 76.02 61.3883 77.12 59.9583 77.12C59.1383 77.12 58.4883 76.77 58.1483 76.07V79.11H57.4583ZM58.1583 74.58C58.1583 75.69 58.7783 76.5 59.8383 76.5C60.8883 76.5 61.4983 75.69 61.4983 74.58C61.4983 73.46 60.8883 72.66 59.8383 72.66C58.7783 72.66 58.1583 73.46 58.1583 74.58ZM65.3281 77.12C63.9081 77.12 62.9581 76.1 62.9581 74.58C62.9581 73.07 63.8981 72.03 65.2781 72.03C66.5881 72.03 67.4781 72.96 67.4781 74.33V74.67H63.6281C63.6781 75.85 64.2981 76.53 65.3381 76.53C66.1281 76.53 66.6381 76.19 66.8181 75.55H67.4781C67.2181 76.57 66.4681 77.12 65.3281 77.12ZM65.2781 72.62C64.3681 72.62 63.7681 73.22 63.6481 74.17H66.7881C66.7881 73.24 66.1881 72.62 65.2781 72.62ZM71.1113 72.1V72.72H70.7313C69.8413 72.72 69.2713 73.32 69.2713 74.24V77H68.5813V72.16H69.2313L69.2813 72.91C69.4713 72.39 69.9813 72.05 70.6613 72.05C70.8113 72.05 70.9413 72.06 71.1113 72.1ZM73.3339 77H72.6539V72.74H71.6839V72.16H72.6539V70.63H73.3339V72.16H74.3039V72.74H73.3339V77ZM75.5424 70.83C75.2624 70.83 75.0324 70.6 75.0324 70.32C75.0324 70.04 75.2624 69.8 75.5424 69.8C75.8224 69.8 76.0624 70.04 76.0624 70.32C76.0624 70.6 75.8224 70.83 75.5424 70.83ZM75.2024 77V72.16H75.8924V77H75.2024ZM79.3613 77.12C77.9413 77.12 76.9913 76.1 76.9913 74.58C76.9913 73.07 77.9313 72.03 79.3113 72.03C80.6213 72.03 81.5113 72.96 81.5113 74.33V74.67H77.6613C77.7113 75.85 78.3313 76.53 79.3713 76.53C80.1613 76.53 80.6713 76.19 80.8513 75.55H81.5113C81.2513 76.57 80.5013 77.12 79.3613 77.12ZM79.3113 72.62C78.4013 72.62 77.8013 73.22 77.6813 74.17H80.8213C80.8213 73.24 80.2213 72.62 79.3113 72.62ZM82.2045 75.64H82.8645C82.8645 76.2 83.2845 76.55 83.9645 76.55C84.7145 76.55 85.1545 76.23 85.1545 75.71C85.1545 75.31 84.9545 75.08 84.3845 74.94L83.5545 74.73C82.7145 74.52 82.3045 74.08 82.3045 73.42C82.3045 72.57 83.0145 72.03 84.0545 72.03C85.0745 72.03 85.7345 72.59 85.7645 73.49H85.0945C85.0745 72.93 84.6845 72.6 84.0345 72.6C83.3545 72.6 82.9745 72.89 82.9745 73.41C82.9745 73.78 83.2345 74.04 83.7645 74.17L84.5945 74.38C85.4345 74.59 85.8145 74.98 85.8145 75.68C85.8145 76.55 85.0745 77.12 83.9745 77.12C82.8845 77.12 82.2045 76.54 82.2045 75.64Z" fill="#858585"/>
<path d="M56.6208 33.8689C58.2771 32.5852 59.3468 30.5803 59.3468 28.3219C59.3468 26.8717 59.9095 25.5008 60.9397 24.4706C62.271 23.1393 63 21.3801 63 19.502C63 17.6239 62.271 15.8568 60.9397 14.5334C59.9095 13.5032 59.3468 12.1402 59.3468 10.6821C59.3468 6.80707 56.1929 3.65315 52.3179 3.65315C50.8677 3.65315 49.4968 3.09052 48.4666 2.06035C47.1432 0.729046 45.3761 0 43.498 0C41.6199 0 39.8528 0.729046 38.5294 2.06035C37.4992 3.09052 36.1362 3.65315 34.6781 3.65315C30.8031 3.65315 27.6492 6.80707 27.6492 10.6821C27.6492 12.1402 27.0866 13.5032 26.0564 14.5334C23.3145 17.2752 23.3145 21.7367 26.0564 24.4785C27.0866 25.5087 27.6492 26.8717 27.6492 28.3298C27.6492 30.192 28.3782 31.8799 29.559 33.132L24.4557 44.0756C24.3209 44.3688 24.3764 44.7095 24.5904 44.9473C24.8043 45.185 25.1451 45.2643 25.4462 45.1533L32.1186 42.7284L34.5434 49.4008C34.6544 49.7019 34.9317 49.908 35.2566 49.9238C35.2646 49.9238 35.2804 49.9238 35.2883 49.9238C35.5974 49.9238 35.8747 49.7495 36.0094 49.4642L41.089 38.576C41.8497 38.8534 42.666 39.004 43.498 39.004C43.9735 39.004 44.441 38.9564 44.8927 38.8692L49.8296 49.4642C49.9643 49.7415 50.2417 49.9238 50.5507 49.9238C50.5587 49.9238 50.5745 49.9238 50.5824 49.9238C50.8994 49.908 51.1847 49.7019 51.2956 49.4008L53.7284 42.7284L60.4008 45.1533C60.7019 45.2643 61.0427 45.1771 61.2566 44.9473C61.4706 44.7095 61.5261 44.3688 61.3913 44.0756L56.6208 33.8689ZM35.3755 47.0631L33.331 41.4447C33.1804 41.0326 32.7287 40.8187 32.3167 40.9692L26.6983 43.0137L30.811 34.1938C31.9205 34.9229 33.2438 35.3587 34.6702 35.3587C36.1283 35.3587 37.4913 35.9214 38.5215 36.9515C38.8702 37.3002 39.2585 37.6093 39.6626 37.8708L35.3755 47.0631ZM41.0256 36.8327C41.0256 36.8247 41.0256 36.8247 41.0256 36.8327C40.5184 36.5712 40.0509 36.2383 39.6468 35.8342C38.3234 34.5029 36.5562 33.7738 34.6781 33.7738C31.6748 33.7738 29.2341 31.3331 29.2341 28.3298C29.2341 26.4517 28.505 24.6845 27.1737 23.3612C25.05 21.2374 25.05 17.7824 27.1737 15.6586C28.505 14.3353 29.2341 12.5681 29.2341 10.69C29.2341 7.68668 31.6748 5.24596 34.6781 5.24596C36.5562 5.24596 38.3234 4.51692 39.6468 3.18561C40.6769 2.15544 42.0399 1.59281 43.498 1.59281C44.9561 1.59281 46.3191 2.15544 47.3493 3.18561C48.6806 4.51692 50.4398 5.24596 52.3179 5.24596C55.3212 5.24596 57.762 7.68668 57.762 10.69C57.762 12.5681 58.491 14.3353 59.8223 15.6586C60.8525 16.6888 61.4151 18.0518 61.4151 19.5099C61.4151 20.968 60.8525 22.331 59.8223 23.3612C58.491 24.6925 57.762 26.4517 57.762 28.3298C57.762 31.3331 55.3212 33.7738 52.3179 33.7738C50.4398 33.7738 48.6727 34.5029 47.3493 35.8342C46.3191 36.8644 44.9561 37.427 43.498 37.427C42.6263 37.427 41.7863 37.213 41.0256 36.8327ZM53.5224 40.9692C53.1103 40.8187 52.6586 41.0326 52.5081 41.4447L50.4636 47.0631L46.4142 38.37C47.167 38.0293 47.8644 37.5538 48.4745 36.9436C49.5047 35.9134 50.8677 35.3508 52.3258 35.3508C53.3798 35.3508 54.3703 35.1131 55.2737 34.6931L59.1487 43.0058L53.5224 40.9692Z" fill="#858585"/>
<path d="M57.5483 19.5034C57.5483 11.7612 51.2484 5.45337 43.4983 5.45337C35.7482 5.45337 29.4483 11.7533 29.4483 19.5034C29.4483 27.2534 35.7561 33.5533 43.5062 33.5533C51.2563 33.5533 57.5483 27.2534 57.5483 19.5034ZM43.5062 31.9685C36.6357 31.9685 31.0411 26.3817 31.0411 19.5034C31.0411 12.625 36.6357 7.04618 43.5062 7.04618C50.3767 7.04618 55.9713 12.6329 55.9713 19.5113C55.9713 26.3897 50.3767 31.9685 43.5062 31.9685Z" fill="#858585"/>
<path d="M53.1028 16.3881C53.0078 16.1028 52.7621 15.8888 52.461 15.8492L46.7633 15.0172L44.2117 9.85043C43.9422 9.31157 43.0547 9.31157 42.7932 9.85043L40.2415 15.0172L34.5439 15.8492C34.2427 15.8888 33.9971 16.1028 33.902 16.3881C33.8069 16.6734 33.8861 16.9903 34.1001 17.2043L38.2287 21.222L37.254 26.8958C37.2065 27.197 37.3253 27.4902 37.571 27.6724C37.7057 27.7755 37.8721 27.823 38.0385 27.823C38.1653 27.823 38.2921 27.7913 38.4031 27.7358L43.5064 25.0495L48.6018 27.7279C48.8712 27.8706 49.1882 27.8468 49.4338 27.6645C49.6795 27.4902 49.7984 27.1891 49.7508 26.8879L48.7761 21.214L52.9047 17.1964C53.1187 16.9903 53.1979 16.6734 53.1028 16.3881ZM47.3735 20.3741C47.1833 20.5563 47.1041 20.8178 47.1437 21.0793L47.9124 25.5883L43.863 23.4646C43.7441 23.4012 43.6252 23.3774 43.4985 23.3774C43.3717 23.3774 43.2449 23.4091 43.1339 23.4646L39.0846 25.5883L39.8611 21.0793C39.9087 20.8257 39.8215 20.5563 39.6313 20.3741L36.3586 17.1805L40.8834 16.5228C41.1449 16.4832 41.3668 16.3247 41.4777 16.0869L43.5064 11.99L45.5271 16.0869C45.646 16.3247 45.8679 16.4832 46.1214 16.5228L50.6463 17.1805L47.3735 20.3741Z" fill="#858585"/>
<path d="M266.138 20.3972C265.641 19.9263 264.992 19.6597 264.308 19.6597C263.259 19.6597 262.237 20.2994 261.82 21.3123C261.367 22.3875 261.038 23.7736 260.842 25.4352C260.771 26.0039 260.576 26.5903 260.3 27.1768C259.776 26.6259 258.976 26.1905 258.115 26.3238C257.724 26.386 257.359 26.5637 257.031 26.8569C255.564 28.1453 253.032 29.6381 249.913 31.0597C245.968 32.8546 245.266 38.4525 245.177 39.4653L244.813 39.3764C244.582 39.3231 244.342 39.3587 244.137 39.4831C243.933 39.6075 243.791 39.8029 243.738 40.034L242.982 43.135L242.227 40.034C242.174 39.8029 242.023 39.6075 241.827 39.4831C241.623 39.3587 241.383 39.3231 241.152 39.3764L240.788 39.4653C240.69 38.4524 239.997 32.8545 236.043 31.0597C232.924 29.6381 230.4 28.1542 228.925 26.8569C228.596 26.5726 228.241 26.3949 227.841 26.3238C226.997 26.1905 226.189 26.6259 225.664 27.1857C225.389 26.5992 225.184 26.0039 225.122 25.4441C224.927 23.7825 224.598 22.3963 224.145 21.3301C223.727 20.326 222.759 19.6774 221.684 19.6774C220.964 19.6774 220.324 19.9351 219.827 20.4149C219.293 20.9303 218.991 21.65 219 22.4053C219.089 25.1953 219.72 29.2384 222.279 32.6766C224.012 35.0047 226.082 36.5507 227.912 37.9191C229.663 39.2253 231.093 40.3093 231.76 41.6777L231.289 41.7932C230.809 41.9087 230.516 42.3886 230.64 42.8683L231.973 48.3241C232.026 48.5551 232.177 48.7506 232.373 48.875C232.515 48.9638 232.675 49.0083 232.835 49.0083C232.906 49.0083 232.977 49.0083 233.048 48.9816L242.92 46.5736C242.92 46.5736 242.973 46.547 243 46.5381C243.026 46.547 243.053 46.5647 243.08 46.5736L252.951 48.9816C253.022 48.9994 253.093 49.0083 253.165 49.0083C253.324 49.0083 253.484 48.9638 253.627 48.875C253.831 48.7506 253.973 48.5551 254.026 48.3241L255.359 42.8683C255.475 42.3885 255.182 41.9087 254.711 41.7932L254.24 41.6777C254.906 40.3004 256.337 39.2253 258.087 37.9191C259.918 36.5508 261.988 35.0047 263.721 32.6766C266.271 29.2379 266.91 25.1952 266.999 22.3962C267.017 21.6498 266.715 20.9301 266.173 20.4147L266.138 20.3972ZM228.97 36.4798C227.238 35.1826 225.274 33.7164 223.701 31.6017C221.302 28.3762 220.84 24.4131 220.778 22.3516C220.778 22.094 220.867 21.8629 221.053 21.6852C221.222 21.5253 221.435 21.4364 221.675 21.4364C222.022 21.4364 222.368 21.6497 222.511 22.0051C222.777 22.636 223.142 23.7822 223.364 25.6481C223.595 27.6029 224.919 29.6466 226.278 31.2904V31.2993C226.287 31.3171 226.296 31.326 226.314 31.3349C227.851 33.1831 229.424 34.5248 229.548 34.6225C229.921 34.9335 230.481 34.889 230.801 34.5159C231.112 34.1427 231.067 33.5829 230.694 33.263C230.659 33.2364 228.428 31.3437 226.802 29.0602C226.749 28.8825 226.758 28.687 226.838 28.5537C226.838 28.5537 226.847 28.5359 226.856 28.5271C227.051 28.2338 227.407 28.0472 227.566 28.0739C227.655 28.0917 227.735 28.1627 227.771 28.1894C229.37 29.5933 232.045 31.1838 235.323 32.6677C238.611 34.1693 239.038 39.6783 239.038 39.7408C239.038 39.7942 239.064 39.8297 239.073 39.883L233.528 41.2336C232.738 39.2966 230.978 37.9726 228.97 36.4798ZM233.475 47.0179L232.569 43.2948L233.111 43.1616H233.138H233.155L240.708 41.3222L241.614 45.0453L233.475 47.0268L233.475 47.0179ZM252.491 47.0179L244.352 45.0364L245.258 41.3134L252.811 43.1527H252.828H252.855L253.397 43.286L252.491 47.009L252.491 47.0179ZM262.265 31.5926C260.692 33.7163 258.728 35.1824 256.996 36.4708C254.997 37.9635 253.228 39.2875 252.438 41.2245L246.893 39.8739C246.902 39.8295 246.929 39.7851 246.929 39.7318C246.929 39.6785 247.355 34.1605 250.643 32.6586C253.913 31.1747 256.596 29.5753 258.195 28.1714C258.222 28.1448 258.302 28.0737 258.391 28.0648C258.577 28.0382 258.915 28.2248 259.11 28.518C259.11 28.5269 259.119 28.5358 259.128 28.5446C259.217 28.6868 259.217 28.8734 259.164 29.0511C257.529 31.3347 255.299 33.2184 255.272 33.2539C254.899 33.5649 254.845 34.1336 255.165 34.5068C255.476 34.88 256.045 34.9333 256.418 34.6134C256.542 34.5068 258.115 33.174 259.652 31.3258C259.652 31.3169 259.67 31.308 259.679 31.2991C259.679 31.2991 259.697 31.2725 259.706 31.2547C261.065 29.6109 262.371 27.5761 262.602 25.6302C262.825 23.7731 263.189 22.6269 263.455 21.9872C263.598 21.6495 263.917 21.4274 264.291 21.4274C264.539 21.4629 264.744 21.5162 264.913 21.6673C265.09 21.845 265.188 22.076 265.188 22.3248C265.126 24.3951 264.664 28.3578 262.265 31.5834L262.265 31.5926Z" fill="#858585"/>
<path d="M244.272 20.566H241.695C240.762 20.566 240.006 19.8107 240.006 18.8777C240.006 18.389 239.607 17.9892 239.118 17.9892C238.629 17.9892 238.229 18.389 238.229 18.8777C238.229 20.7881 239.784 22.3431 241.695 22.3431H242.095V23.3827C242.095 23.8714 242.494 24.2712 242.983 24.2712C243.472 24.2712 243.872 23.8714 243.872 23.3827V22.3431H244.272C246.182 22.3431 247.737 20.7881 247.737 18.8777V18.238C247.737 16.3276 246.182 14.7726 244.272 14.7726H241.695C240.762 14.7726 240.006 14.0173 240.006 13.0843V12.4445C240.006 11.5116 240.762 10.7563 241.695 10.7563H244.272C245.205 10.7563 245.96 11.5115 245.96 12.4445C245.96 12.9332 246.36 13.3331 246.848 13.3331C247.337 13.3331 247.737 12.9332 247.737 12.4445C247.737 10.5341 246.182 8.97917 244.272 8.97917H243.872V7.93958C243.872 7.45087 243.472 7.05103 242.983 7.05103C242.494 7.05103 242.095 7.45087 242.095 7.93958V8.97917H241.695C239.784 8.97917 238.229 10.5341 238.229 12.4445V13.0843C238.229 14.9947 239.784 16.5497 241.695 16.5497H244.272C245.204 16.5497 245.96 17.3049 245.96 18.238V18.8777C245.96 19.8107 245.205 20.566 244.272 20.566Z" fill="#858585"/>
<path d="M242.983 30.3219C251.069 30.3219 257.644 23.7469 257.644 15.6609C257.644 7.57499 251.069 1 242.983 1C234.897 1 228.322 7.57499 228.322 15.6609C228.322 23.7469 234.897 30.3219 242.983 30.3219ZM242.983 2.77653C250.091 2.77653 255.867 8.55197 255.867 15.6604C255.867 22.7688 250.091 28.5442 242.983 28.5442C235.875 28.5442 230.099 22.7688 230.099 15.6604C230.099 8.55197 235.875 2.77653 242.983 2.77653Z" fill="#858585"/>
<path d="M210.59 77H209.87V69.84H212.54C213.99 69.84 214.87 70.64 214.87 71.91C214.87 72.94 214.33 73.66 213.41 73.91L214.94 77H214.14L212.68 74.03H210.59V77ZM210.59 70.49V73.38H212.56C213.55 73.38 214.13 72.84 214.13 71.93C214.13 71 213.52 70.49 212.54 70.49H210.59ZM217.795 77.12C216.375 77.12 215.425 76.1 215.425 74.58C215.425 73.07 216.365 72.03 217.745 72.03C219.055 72.03 219.945 72.96 219.945 74.33V74.67H216.095C216.145 75.85 216.765 76.53 217.805 76.53C218.595 76.53 219.105 76.19 219.285 75.55H219.945C219.685 76.57 218.935 77.12 217.795 77.12ZM217.745 72.62C216.835 72.62 216.235 73.22 216.115 74.17H219.255C219.255 73.24 218.655 72.62 217.745 72.62ZM221.738 77H221.048V72.16H221.648L221.748 73C222.068 72.38 222.708 72.03 223.408 72.03C224.738 72.03 225.288 72.82 225.288 74.04V77H224.598V74.19C224.598 73.06 224.088 72.66 223.288 72.66C222.298 72.66 221.738 73.38 221.738 74.47V77ZM227.773 77H227.093V72.74H226.123V72.16H227.093V70.63H227.773V72.16H228.743V72.74H227.773V77ZM235.485 77.11C233.485 77.11 232.125 75.62 232.125 73.42C232.125 71.22 233.505 69.72 235.525 69.72C237.065 69.72 238.275 70.65 238.565 72.07H237.795C237.495 71.04 236.615 70.41 235.495 70.41C233.925 70.41 232.875 71.61 232.875 73.42C232.875 75.22 233.925 76.42 235.495 76.42C236.625 76.42 237.525 75.81 237.835 74.85H238.605C238.275 76.2 237.025 77.11 235.485 77.11ZM239.36 74.58C239.36 73.1 240.4 72.03 241.82 72.03C243.24 72.03 244.28 73.1 244.28 74.58C244.28 76.05 243.24 77.12 241.82 77.12C240.4 77.12 239.36 76.05 239.36 74.58ZM240.06 74.57C240.06 75.71 240.78 76.5 241.82 76.5C242.85 76.5 243.58 75.71 243.58 74.57C243.58 73.45 242.85 72.65 241.82 72.65C240.78 72.65 240.06 73.45 240.06 74.57ZM246.104 77H245.414V69.71H246.104V77ZM248.292 77H247.602V69.71H248.292V77ZM251.789 77.12C250.369 77.12 249.419 76.1 249.419 74.58C249.419 73.07 250.359 72.03 251.739 72.03C253.049 72.03 253.939 72.96 253.939 74.33V74.67H250.089C250.139 75.85 250.759 76.53 251.799 76.53C252.589 76.53 253.099 76.19 253.279 75.55H253.939C253.679 76.57 252.929 77.12 251.789 77.12ZM251.739 72.62C250.829 72.62 250.229 73.22 250.109 74.17H253.249C253.249 73.24 252.649 72.62 251.739 72.62ZM254.702 74.59C254.702 73.07 255.632 72.03 257.042 72.03C258.162 72.03 258.982 72.68 259.172 73.68H258.482C258.302 73.01 257.722 72.64 257.052 72.64C256.072 72.64 255.382 73.39 255.382 74.58C255.382 75.73 256.022 76.5 257.002 76.5C257.722 76.5 258.302 76.1 258.492 75.48H259.192C258.962 76.47 258.102 77.12 257.002 77.12C255.632 77.12 254.702 76.11 254.702 74.59ZM261.348 77H260.668V72.74H259.698V72.16H260.668V70.63H261.348V72.16H262.318V72.74H261.348V77ZM263.556 70.83C263.276 70.83 263.046 70.6 263.046 70.32C263.046 70.04 263.276 69.8 263.556 69.8C263.836 69.8 264.076 70.04 264.076 70.32C264.076 70.6 263.836 70.83 263.556 70.83ZM263.216 77V72.16H263.906V77H263.216ZM265.005 74.58C265.005 73.1 266.045 72.03 267.465 72.03C268.885 72.03 269.925 73.1 269.925 74.58C269.925 76.05 268.885 77.12 267.465 77.12C266.045 77.12 265.005 76.05 265.005 74.58ZM265.705 74.57C265.705 75.71 266.425 76.5 267.465 76.5C268.495 76.5 269.225 75.71 269.225 74.57C269.225 73.45 268.495 72.65 267.465 72.65C266.425 72.65 265.705 73.45 265.705 74.57ZM271.719 77H271.029V72.16H271.629L271.729 73C272.049 72.38 272.689 72.03 273.389 72.03C274.719 72.03 275.269 72.82 275.269 74.04V77H274.579V74.19C274.579 73.06 274.069 72.66 273.269 72.66C272.279 72.66 271.719 73.38 271.719 74.47V77Z" fill="#858585"/>
<path d="M415.546 17.2721H431.593C432.008 17.2721 432.337 17.609 432.337 18.0113C432.337 18.4231 431.998 18.7506 431.593 18.7506H415.546C414.558 18.7318 414.567 17.2815 415.546 17.2721ZM415.546 24.6924H428.243C429.222 24.6737 429.231 23.2233 428.243 23.2046H415.546C414.567 23.2233 414.558 24.6737 415.546 24.6924ZM415.546 30.6248H422.68C423.659 30.6061 423.659 29.1557 422.68 29.137H415.546C414.567 29.1557 414.558 30.6061 415.546 30.6248ZM428.233 35.0788H415.546C414.567 35.0975 414.558 36.5479 415.546 36.5666H428.233C429.212 36.5479 429.222 35.0882 428.233 35.0788ZM454.813 46.9999C453.655 46.9999 452.544 46.5227 451.754 45.6805L446.107 39.6826C445.024 38.5504 442.718 36.0894 441.627 34.9291V39.9071C441.627 40.8335 440.864 41.5914 439.932 41.5914H438.954V42.4242C440.685 42.7611 442.003 44.2769 442.003 46.1016C442.003 46.5133 441.664 46.8408 441.259 46.8408H416.845C416.431 46.8408 416.101 46.504 416.101 46.1016C416.064 44.3518 417.428 42.7236 419.151 42.4242V41.5914H412.694C411.762 41.5914 411 40.8335 411 39.9071V7.93367C411 7.73717 411.085 7.55002 411.216 7.40967L417.447 1.21522C417.588 1.08421 417.777 1 417.974 1H439.914C440.845 1 441.608 1.75793 441.608 2.68429V19.3962L445.081 22.2501C447.509 24.2994 445.043 28.1077 442.182 26.7697L441.551 27.5276L442.511 28.3136C443.17 28.8563 443.349 29.7546 443.029 30.4938C447.095 33.0951 453.439 36.9596 457.495 39.6358C460.498 42.078 458.7 47.028 454.813 46.9999ZM440.394 20.3132C440.177 20.1822 436.61 17.0756 436.412 17.1598C435.104 16.7481 434.201 18.4886 435.33 19.312L442.511 25.2164C443.029 25.6936 443.857 25.6562 444.3 25.1134C444.733 24.5988 444.657 23.8222 444.14 23.4011C444.13 23.3824 440.394 20.3132 440.394 20.3132ZM440.977 25.8807L434.953 20.9214C434.172 21.8571 430.313 26.5077 429.447 27.5463L435.471 32.4963C436.158 31.6635 440.187 26.8258 440.977 25.8807ZM435.132 34.1525L427.866 28.1826C426.596 27.1627 425.061 28.978 426.285 30.0447L433.598 36.0613C434.295 36.6696 435.499 36.2017 435.593 35.2847C435.659 34.8543 435.462 34.4145 435.132 34.1525ZM413.551 7.18509H417.033C417.146 7.18509 417.231 7.09152 417.231 6.98859V3.52644L413.551 7.18509ZM438.21 43.8465H419.904C418.944 43.8184 418.021 44.4641 417.72 45.3624H440.384C440.074 44.4734 439.208 43.8372 438.21 43.8465ZM437.419 41.0674C437.241 40.375 436.638 39.9071 435.942 39.9071H422.172C421.334 39.8978 420.647 40.6089 420.647 41.423V42.3587H437.466C437.448 42.1061 437.504 41.3014 437.419 41.0674ZM440.121 33.8063C439.584 34.0495 438.954 34.0215 438.436 33.7408C438.21 33.6285 437.401 32.9267 437.194 32.7583L436.572 33.5068C438.389 36.1175 435.17 39.1492 432.648 37.1936L425.334 31.1863C422.906 29.1464 425.372 25.3474 428.243 26.6667C428.845 25.9462 433.382 20.491 433.852 19.9202C432.45 18.0675 434.059 15.2884 436.384 15.6346C436.892 15.7001 437.372 15.8966 437.777 16.2335L440.121 18.1611V2.67493C440.121 2.56265 440.027 2.47843 439.914 2.47843H418.727V6.98859C418.727 7.91495 417.965 8.67288 417.033 8.67288H412.497V39.9071C412.497 40.0194 412.591 40.113 412.694 40.113H419.461C419.96 39.1024 421.033 38.4193 422.172 38.4287H435.942C437.071 38.4287 438.163 39.1024 438.652 40.113H439.923C440.036 40.113 440.13 40.0194 440.13 39.9071V33.8063H440.121ZM441.617 29.9792C441.749 29.8201 441.73 29.5768 441.57 29.4458L440.61 28.6598L438.144 31.6167L439.104 32.4027C439.264 32.5337 439.509 32.515 439.641 32.3559C439.942 31.991 441.307 30.3441 441.617 29.9792ZM444.798 36.1268L446.314 34.3022L442.144 31.6728C441.965 31.888 441.608 32.3185 441.429 32.5337L444.798 36.1268ZM446.605 38.0451L448.544 35.7151L447.584 35.1069L445.824 37.2216L446.605 38.0451ZM456.262 40.5621L449.824 36.5105L447.641 39.1399L452.855 44.6699C453.909 45.8489 455.923 45.7834 456.912 44.5483C457.938 43.3132 457.627 41.4136 456.262 40.5621ZM427.113 9.7396C427.424 2.2445 438.163 2.2445 438.474 9.7396C438.474 12.8555 435.923 15.3913 432.789 15.3913C429.655 15.3913 427.113 12.8555 427.113 9.7396ZM428.61 9.7396C428.817 15.251 436.779 15.2603 436.986 9.7396C436.986 7.44709 435.104 5.57566 432.798 5.57566C430.492 5.57566 428.61 7.44709 428.61 9.7396ZM431.509 11.6391C431.8 11.9292 432.271 11.9292 432.563 11.6391L435.321 8.89746C435.998 8.19567 434.972 7.16638 434.266 7.84945L432.036 10.0671L431.33 9.36532C430.624 8.6916 429.589 9.71153 430.276 10.4133L431.509 11.6391Z" fill="#858585"/>
<path d="M399.59 77H398.87V69.84H399.6L403.54 75.8V69.84H404.25V77H403.54L399.59 71.04V77ZM405.509 74.58C405.509 73.1 406.549 72.03 407.969 72.03C409.389 72.03 410.429 73.1 410.429 74.58C410.429 76.05 409.389 77.12 407.969 77.12C406.549 77.12 405.509 76.05 405.509 74.58ZM406.209 74.57C406.209 75.71 406.929 76.5 407.969 76.5C408.999 76.5 409.729 75.71 409.729 74.57C409.729 73.45 408.999 72.65 407.969 72.65C406.929 72.65 406.209 73.45 406.209 74.57ZM415.176 69.84V76.34H418.466V77H414.456V69.84H415.176ZM421.326 77.12C419.906 77.12 418.956 76.1 418.956 74.58C418.956 73.07 419.896 72.03 421.276 72.03C422.586 72.03 423.476 72.96 423.476 74.33V74.67H419.626C419.676 75.85 420.296 76.53 421.336 76.53C422.126 76.53 422.636 76.19 422.816 75.55H423.476C423.216 76.57 422.466 77.12 421.326 77.12ZM421.276 72.62C420.366 72.62 419.766 73.22 419.646 74.17H422.786C422.786 73.24 422.186 72.62 421.276 72.62ZM424.249 74.44C424.249 73.12 425.099 72.03 426.519 72.03C427.359 72.03 427.999 72.42 428.309 73.13L428.379 72.16H428.979V76.85C428.979 78.29 428.059 79.23 426.639 79.23C425.399 79.23 424.529 78.53 424.339 77.36H425.029C425.179 78.14 425.779 78.6 426.649 78.6C427.639 78.6 428.299 77.93 428.299 76.92V75.77C427.969 76.45 427.299 76.85 426.469 76.85C425.089 76.85 424.249 75.76 424.249 74.44ZM424.939 74.43C424.939 75.42 425.549 76.23 426.569 76.23C427.619 76.23 428.239 75.47 428.239 74.43C428.239 73.4 427.639 72.64 426.579 72.64C425.539 72.64 424.939 73.45 424.939 74.43ZM431.809 77.12C430.779 77.12 430.169 76.54 430.169 75.69C430.169 74.8 430.849 74.24 431.979 74.15L433.579 74.02V73.86C433.579 72.91 433.009 72.61 432.299 72.61C431.459 72.61 430.959 72.99 430.959 73.64H430.329C430.329 72.66 431.129 72.03 432.319 72.03C433.439 72.03 434.259 72.59 434.259 73.87V77H433.679L433.589 76.15C433.289 76.76 432.629 77.12 431.809 77.12ZM431.969 76.56C432.989 76.56 433.579 75.85 433.579 74.8V74.54L432.149 74.65C431.239 74.73 430.869 75.13 430.869 75.67C430.869 76.26 431.309 76.56 431.969 76.56ZM436.364 77H435.674V69.71H436.364V77ZM440.755 77V69.84H443.375C444.755 69.84 445.605 70.54 445.605 71.69C445.605 72.53 445.235 73.1 444.495 73.39C445.325 73.66 445.745 74.24 445.745 75.12C445.745 76.27 444.885 77 443.525 77H440.755ZM443.365 70.48H441.475V73.1H443.455C444.355 73.1 444.865 72.6 444.865 71.75C444.865 70.95 444.325 70.48 443.365 70.48ZM443.525 73.73H441.475V76.35H443.525C444.465 76.35 445.015 75.86 445.015 75.03C445.015 74.22 444.455 73.73 443.525 73.73ZM450.294 72.16H450.984V77H450.384L450.294 76.18C450.024 76.74 449.354 77.12 448.594 77.12C447.454 77.12 446.834 76.34 446.834 75.16V72.15H447.534V74.94C447.534 76.09 448.044 76.5 448.814 76.5C449.744 76.5 450.294 75.88 450.294 74.73V72.16ZM454.951 72.1V72.72H454.571C453.681 72.72 453.111 73.32 453.111 74.24V77H452.421V72.16H453.071L453.121 72.91C453.311 72.39 453.821 72.05 454.501 72.05C454.651 72.05 454.781 72.06 454.951 72.1ZM457.583 77.12C456.173 77.12 455.343 76.04 455.343 74.59C455.343 73.13 456.173 72.03 457.613 72.03C458.413 72.03 459.053 72.38 459.393 73.08V69.71H460.083V77H459.483L459.413 76.01C459.073 76.76 458.393 77.12 457.583 77.12ZM457.703 76.49C458.763 76.49 459.383 75.69 459.383 74.57C459.383 73.46 458.763 72.65 457.703 72.65C456.653 72.65 456.043 73.46 456.043 74.57C456.043 75.69 456.653 76.49 457.703 76.49ZM463.553 77.12C462.133 77.12 461.183 76.1 461.183 74.58C461.183 73.07 462.123 72.03 463.503 72.03C464.813 72.03 465.703 72.96 465.703 74.33V74.67H461.853C461.903 75.85 462.523 76.53 463.563 76.53C464.353 76.53 464.863 76.19 465.043 75.55H465.703C465.443 76.57 464.693 77.12 463.553 77.12ZM463.503 72.62C462.593 72.62 461.993 73.22 461.873 74.17H465.013C465.013 73.24 464.413 72.62 463.503 72.62ZM467.496 77H466.806V72.16H467.406L467.506 73C467.826 72.38 468.466 72.03 469.166 72.03C470.496 72.03 471.046 72.82 471.046 74.04V77H470.356V74.19C470.356 73.06 469.846 72.66 469.046 72.66C468.056 72.66 467.496 73.38 467.496 74.47V77Z" fill="#858585"/>
<path d="M614.8 27.8989C614.978 27.8985 615.152 27.8437 615.298 27.7418L647.013 5.6618L646.48 8.59416C646.46 8.70706 646.462 8.82281 646.487 8.9348C646.512 9.04679 646.558 9.15282 646.624 9.24684C646.69 9.34086 646.773 9.42102 646.87 9.48273C646.966 9.54445 647.074 9.58652 647.187 9.60653H647.344C647.552 9.60955 647.754 9.53824 647.914 9.40544C648.074 9.27264 648.182 9.08707 648.217 8.88216L649.09 3.88144C649.112 3.76908 649.112 3.65343 649.09 3.54107C649.067 3.42877 649.023 3.32201 648.959 3.22689C648.892 3.13126 648.806 3.05093 648.706 2.99125C648.623 2.93867 648.531 2.90307 648.435 2.88653L643.434 2.0138C643.208 1.973 642.974 2.0235 642.784 2.15429C642.595 2.28508 642.464 2.48555 642.422 2.71198C642.401 2.82489 642.402 2.94094 642.425 3.05344C642.449 3.16595 642.494 3.2727 642.559 3.36758C642.624 3.46246 642.707 3.54359 642.803 3.60631C642.899 3.66903 643.007 3.71211 643.12 3.73307L646.053 4.25671L614.285 26.3105C614.132 26.4176 614.017 26.571 613.957 26.7484C613.898 26.9257 613.897 27.1175 613.954 27.2954C614.012 27.4734 614.125 27.6281 614.278 27.7367C614.43 27.8454 614.613 27.9022 614.8 27.8989Z" fill="#858585"/>
<path d="M657.127 46.532H654.073V14.2411C654.073 14.0097 653.981 13.7877 653.817 13.624C653.653 13.4604 653.431 13.3684 653.2 13.3684H644.473C644.241 13.3684 644.019 13.4604 643.856 13.624C643.692 13.7877 643.6 14.0097 643.6 14.2411V46.532H640.109V24.7139C640.109 24.4824 640.017 24.2604 639.853 24.0968C639.69 23.9331 639.468 23.8411 639.236 23.8411H630.509C630.278 23.8411 630.056 23.9331 629.892 24.0968C629.728 24.2604 629.636 24.4824 629.636 24.7139V46.532H626.145V33.4411C626.145 33.2097 626.054 32.9877 625.89 32.824C625.726 32.6604 625.504 32.5684 625.273 32.5684H616.545C616.314 32.5684 616.092 32.6604 615.928 32.824C615.765 32.9877 615.673 33.2097 615.673 33.4411V46.532H610.873C610.641 46.532 610.419 46.624 610.256 46.7877C610.092 46.9513 610 47.1733 610 47.4048C610 47.6362 610.092 47.8582 610.256 48.0219C610.419 48.1856 610.641 48.2775 610.873 48.2775H657.127C657.359 48.2775 657.581 48.1856 657.744 48.0219C657.908 47.8582 658 47.6362 658 47.4048C658 47.1733 657.908 46.9513 657.744 46.7877C657.581 46.624 657.359 46.532 657.127 46.532ZM617.418 46.532V34.3139H624.4V46.532H617.418ZM631.382 46.532V25.5866H638.364V46.532H631.382ZM645.345 46.532V15.1139H652.327V46.532H645.345Z" fill="#858585"/>
<path d="M597.87 70.4C596.22 70.4 595.18 71.62 595.18 73.45C595.18 75.31 596.28 76.44 597.89 76.44C599.09 76.44 600.26 75.86 600.26 74.14V73.77H597.67V73.13H600.94V77.01H600.37L600.3 75.87C599.92 76.58 599.02 77.12 597.86 77.12C595.83 77.12 594.43 75.66 594.43 73.45C594.43 71.26 595.83 69.72 597.88 69.72C599.39 69.72 600.56 70.58 600.84 71.88H600.06C599.76 70.9 598.92 70.4 597.87 70.4ZM604.75 72.1V72.72H604.37C603.48 72.72 602.91 73.32 602.91 74.24V77H602.22V72.16H602.87L602.92 72.91C603.11 72.39 603.62 72.05 604.3 72.05C604.45 72.05 604.58 72.06 604.75 72.1ZM605.142 74.58C605.142 73.1 606.182 72.03 607.602 72.03C609.022 72.03 610.062 73.1 610.062 74.58C610.062 76.05 609.022 77.12 607.602 77.12C606.182 77.12 605.142 76.05 605.142 74.58ZM605.842 74.57C605.842 75.71 606.562 76.5 607.602 76.5C608.632 76.5 609.362 75.71 609.362 74.57C609.362 73.45 608.632 72.65 607.602 72.65C606.562 72.65 605.842 73.45 605.842 74.57ZM611.97 77L610.37 72.16H611.08L612.03 75.08C612.14 75.4 612.23 75.73 612.33 76.12C612.41 75.73 612.57 75.24 612.62 75.08L613.58 72.16H614.29L615.24 75.08C615.33 75.34 615.45 75.76 615.54 76.12C615.64 75.72 615.66 75.6 615.83 75.08L616.79 72.16H617.51L615.87 77H615.2L614.2 73.96C614.08 73.6 614 73.3 613.94 73.01C613.87 73.27 613.79 73.56 613.66 73.96L612.66 77H611.97ZM622.956 74.01L620.526 69.84H621.336L623.106 72.93C623.186 73.08 623.246 73.2 623.316 73.36C623.406 73.18 623.406 73.18 623.536 72.93L625.286 69.84H626.076L623.676 74.01V77H622.956V74.01ZM625.62 74.58C625.62 73.1 626.66 72.03 628.08 72.03C629.5 72.03 630.54 73.1 630.54 74.58C630.54 76.05 629.5 77.12 628.08 77.12C626.66 77.12 625.62 76.05 625.62 74.58ZM626.32 74.57C626.32 75.71 627.04 76.5 628.08 76.5C629.11 76.5 629.84 75.71 629.84 74.57C629.84 73.45 629.11 72.65 628.08 72.65C627.04 72.65 626.32 73.45 626.32 74.57ZM634.927 72.16H635.617V77H635.017L634.927 76.18C634.657 76.74 633.987 77.12 633.227 77.12C632.087 77.12 631.467 76.34 631.467 75.16V72.15H632.167V74.94C632.167 76.09 632.677 76.5 633.447 76.5C634.377 76.5 634.927 75.88 634.927 74.73V72.16ZM639.584 72.1V72.72H639.204C638.314 72.72 637.744 73.32 637.744 74.24V77H637.054V72.16H637.704L637.754 72.91C637.944 72.39 638.454 72.05 639.134 72.05C639.284 72.05 639.414 72.06 639.584 72.1ZM644.835 77L642.705 69.84H643.455L644.905 74.76C645.005 75.11 645.095 75.47 645.185 75.94C645.305 75.42 645.405 75.11 645.515 74.76L647.075 69.84H647.825L649.385 74.76C649.495 75.12 649.595 75.48 649.705 75.94C649.815 75.39 649.905 75.04 649.985 74.77L651.465 69.84H652.195L650.045 77H649.365L647.445 70.92L645.525 77H644.835ZM654.533 77.12C653.113 77.12 652.163 76.1 652.163 74.58C652.163 73.07 653.103 72.03 654.483 72.03C655.793 72.03 656.683 72.96 656.683 74.33V74.67H652.833C652.883 75.85 653.503 76.53 654.543 76.53C655.333 76.53 655.843 76.19 656.023 75.55H656.683C656.423 76.57 655.673 77.12 654.533 77.12ZM654.483 72.62C653.573 72.62 652.973 73.22 652.853 74.17H655.993C655.993 73.24 655.393 72.62 654.483 72.62ZM659.128 77.12C658.098 77.12 657.488 76.54 657.488 75.69C657.488 74.8 658.168 74.24 659.298 74.15L660.898 74.02V73.86C660.898 72.91 660.328 72.61 659.618 72.61C658.778 72.61 658.278 72.99 658.278 73.64H657.648C657.648 72.66 658.448 72.03 659.638 72.03C660.758 72.03 661.578 72.59 661.578 73.87V77H660.998L660.908 76.15C660.608 76.76 659.948 77.12 659.128 77.12ZM659.288 76.56C660.308 76.56 660.898 75.85 660.898 74.8V74.54L659.468 74.65C658.558 74.73 658.188 75.13 658.188 75.67C658.188 76.26 658.628 76.56 659.288 76.56ZM663.682 77H662.992V69.71H663.682V77ZM666.26 77H665.58V72.74H664.61V72.16H665.58V70.63H666.26V72.16H667.23V72.74H666.26V77ZM668.818 76.99H668.128V69.71H668.818V73C669.128 72.42 669.718 72.03 670.528 72.03C671.798 72.03 672.368 72.82 672.368 74.04V77H671.678V74.19C671.678 73.06 671.148 72.66 670.398 72.66C669.358 72.66 668.818 73.43 668.818 74.36V76.99Z" fill="#858585"/>
</svg>
