<svg width="24" height="27" viewBox="0 0 24 27" fill="none" xmlns="http://www.w3.org/2000/svg">
<path d="M12.0008 6.29175C8.6137 6.29175 5.80725 9.30533 5.80725 13.0591C5.80725 16.8129 8.56532 19.8264 12.0008 19.8264C15.4363 19.8264 18.1943 16.76 18.1943 13.0591C18.1943 9.3582 15.3879 6.29175 12.0008 6.29175ZM12.0008 17.3944C9.82338 17.3944 8.03306 15.4382 8.03306 13.0591C8.03306 10.6799 9.82338 8.72376 12.0008 8.72376C14.1782 8.72376 15.9685 10.6799 15.9685 13.0591C15.9685 15.4382 14.1782 17.3944 12.0008 17.3944Z" fill="white"/>
<path d="M18.4366 7.66631C19.2115 7.66631 19.8398 6.97986 19.8398 6.13308C19.8398 5.2863 19.2115 4.59985 18.4366 4.59985C17.6616 4.59985 17.0333 5.2863 17.0333 6.13308C17.0333 6.97986 17.6616 7.66631 18.4366 7.66631Z" fill="white"/>
<path d="M22.0645 2.16766C20.8065 0.740178 19.0161 0 16.9839 0H7.01613C2.80645 0 0 3.06645 0 7.66613V18.5045C0 20.7779 0.677419 22.734 2.03226 24.1615C3.33871 25.5361 5.08065 26.2235 7.06452 26.2235H16.9355C19.0161 26.2235 20.7581 25.4833 22.0161 24.1615C23.3226 22.7869 24 20.8307 24 18.5573V7.66613C24 5.4456 23.3226 3.54228 22.0645 2.16766ZM21.871 18.5573C21.871 20.1963 21.3387 21.518 20.4677 22.4168C19.5968 23.3156 18.3871 23.7914 16.9355 23.7914H7.06452C5.6129 23.7914 4.40323 23.3156 3.53226 22.4168C2.66129 21.4652 2.22581 20.1434 2.22581 18.5045V7.66613C2.22581 6.08003 2.66129 4.75829 3.53226 3.80663C4.35484 2.90784 5.6129 2.43201 7.06452 2.43201H17.0323C18.4839 2.43201 19.6935 2.90784 20.5645 3.8595C21.3871 4.81116 21.871 6.1329 21.871 7.66613V18.5573Z" fill="white"/>
</svg>
