<svg width="25" height="27" viewBox="0 0 25 27" fill="none" xmlns="http://www.w3.org/2000/svg">
<path d="M5.59841 8.42578H0.76967C0.555363 8.42578 0.381714 8.6156 0.381714 8.84968V25.7995C0.381714 26.0337 0.555363 26.2234 0.76967 26.2234H5.59841C5.81271 26.2234 5.98636 26.0337 5.98636 25.7995V8.84968C5.98636 8.6156 5.81271 8.42578 5.59841 8.42578Z" fill="white"/>
<path d="M3.18636 0C1.42939 0 0 1.56011 0 3.47774C0 5.39622 1.42939 6.95693 3.18636 6.95693C4.94194 6.95693 6.37016 5.39614 6.37016 3.47774C6.37024 1.56011 4.94194 0 3.18636 0Z" fill="white"/>
<path d="M17.8818 8.00464C15.9424 8.00464 14.5088 8.91559 13.6392 9.95067V8.84981C13.6392 8.61573 13.4656 8.42591 13.2513 8.42591H8.62691C8.4126 8.42591 8.23895 8.61573 8.23895 8.84981V25.7996C8.23895 26.0338 8.4126 26.2235 8.62691 26.2235H13.4451C13.6594 26.2235 13.833 26.0338 13.833 25.7996V17.4134C13.833 14.5874 14.5356 13.4865 16.3385 13.4865C18.302 13.4865 18.458 15.2514 18.458 17.5588V25.7997C18.458 26.0339 18.6317 26.2236 18.846 26.2236H23.666C23.8803 26.2236 24.0539 26.0339 24.0539 25.7997V16.5024C24.0539 12.3003 23.3206 8.00464 17.8818 8.00464Z" fill="white"/>
</svg>
